PathFileType	4	(X/Y/Z)	C:/Users/beibeiliu/ov580/test_trc/User1\sequence.6_training_dense_left.trc
DataRate	CameraRate	NumFrames	NumMarkers	Units	OrigDataRate	OrigDataStartFrame	OrigNumFrames
120	120	22	19	mm	120	1	64
Frame#	Time	ThumbCMC			ThumbMCP			ThumbIP			ThumbTip			IndexMCP			IndexPIP			IndexTip			MiddleMCP			MiddlePIP			MiddleTip			RingMCP			RingPIP			RingTip			PinkyMCP			PinkyPIP			PinkyTip			BackHand1			BackHand2			BackHand3	
		X0	Y0	Z0	X1	Y1	Z1	X2	Y2	Z2	X3	Y3	Z3	X4	Y4	Z4	X5	Y5	Z5	X6	Y6	Z6	X7	Y7	Z7	X8	Y8	Z8	X9	Y9	Z9	X10	Y10	Z10	X11	Y11	Z11	X12	Y12	Z12	X13	Y13	Z13	X14	Y14	Z14	X15	Y15	Z15	X16	Y16	Z16	X17	Y17	Z17	X18	Y18	Z18	
0	0	-163.327	110.665	100.667	-134.538	120.546	75.383	-117.248	116.208	49.1489	-102.19	89.1931	32.538	-170.846	86.1241	17.3334	-162.443	83.4205	-8.03112	-147.983	76.8667	-36.712	-141.123	70.095	18.6476	-108.808	76.9518	31.3823	-123.284	80.1454	68.3607	-128.959	53.6091	32.1963	-106.115	63.5498	51.4125	-123.883	66.8014	81.108	-126.253	32.212	48.5968	-110.941	47.0738	65.6813	-134.042	59.5815	87.6634	-180.991	43.5032	67.8905	-188.476	43.247	108.939	-190.921	77.2854	86.3827	
1	0.00833333	-162.984	107.446	98.3165	-135.275	120.027	73.9114	-120.053	111.139	50.8714	-102.581	89.2861	34.2007	-170.206	83.7014	15.9786	-161.295	79.4512	-11.4956	-147.362	73.5236	-36.7984	-138.263	69.8979	17.7287	-109.218	76.718	29.2112	-123.284	79.3897	68.5635	-128.367	47.7934	32.6237	-106.392	63.9943	51.7646	-128.176	66.589	83.275	-129.344	31.8999	48.7411	-110.979	49.1788	70.7895	-132.342	58.5066	90.8342	-179.013	39.5568	71.5542	-188.44	42.2484	105.987	-189.617	76.2846	84.5147	
2	0.0166667	-162.81	106.862	100.535	-136.134	119.013	77.3316	-117.476	112.25	47.9149	-103.565	93.0119	37.7287	-169.571	87.7341	11.8331	-161.062	79.8915	-8.89677	-149.699	78.1296	-33.6667	-140.786	66.6757	19.0947	-109.181	76.6373	31.0373	-122.074	82.2675	67.6274	-131.664	51.6576	32.3586	-106.865	65.0353	56.2984	-127.416	65.3845	82.7989	-126.706	31.0215	48.5358	-110.392	48.0186	69.8823	-133.668	57.2477	88.7247	-179.202	38.2955	71.2108	-186.651	42.5094	106.094	-189.314	74.1788	87.6185	
3	0.025	-163.463	110.219	95.7149	-136.574	118.059	74.8678	-118.963	112.478	50.5069	-102.45	94.7371	38.2224	-168.72	85.8664	12.9482	-160.727	84.2006	-13.136	-147.918	74.4552	-31.2384	-142.279	69.3197	19.7108	-108.619	77.54	33.5424	-123.317	80.0191	68.8129	-129.104	53.3678	32.2767	-106.438	64.5452	55.882	-123.552	68.5365	80.8163	-130.179	34.6936	48.2744	-111.867	51.9278	66.9523	-133.329	59.7285	90.2243	-178.15	40.5012	68.4454	-186.686	38.8668	104.869	-190.074	75.7527	84.3592	
4	0.0333333	-164.37	107.01	99.321	-136.821	119.821	72.6073	-118.524	116.46	50.4637	-101.465	94.1101	35.7757	-171.632	89.6667	15.0618	-163.232	84.0985	-8.23986	-151.422	79.2961	-32.4754	-138.708	73.2477	16.475	-110.087	81.8467	34.7822	-122.432	83.5595	67.8269	-129.056	49.9521	33.9815	-107.135	67.5344	56.4434	-127.999	67.3602	82.6075	-126.08	32.4136	49.4543	-113.094	52.5947	64.8188	-133.896	60.4666	89.9079	-180.164	40.2912	68.8227	-188.519	45.2223	103.24	-189.722	75.8908	84.3152	
5	0.0416667	-164.953	107.903	94.8468	-138.57	119.899	72.9492	-121.057	113.669	47.1161	-102.9	93.7013	34.0923	-174.069	90.6549	16.0148	-163.444	80.3058	-11.6268	-152.981	78.0118	-32.7739	-140.512	69.6243	17.4446	-111.606	80.7681	30.6866	-124.433	80.954	67.2002	-130.491	49.894	33.044	-107.885	64.8013	56.0241	-125.613	66.4796	81.0425	-128.988	34.3285	46.7854	-113.363	51.7194	62.2596	-133.725	58.5568	87.8419	-182.029	44.0503	71.8403	-188.086	43.4376	105.369	-191.188	79.6085	85.5869	
6	0.05	-166.159	110.424	94.9775	-138.289	121.866	71.4805	-121.826	114.415	51.5683	-106.069	95.0132	35.4967	-174.992	85.0074	12.6413	-167.866	83.1892	-9.27297	-151.838	75.2049	-32.5729	-142.107	68.7387	16.4666	-114.291	80.2954	26.8819	-126.087	83.4557	67.2072	-136.067	53.4267	31.182	-109.682	64.7275	51.1256	-129.963	70.0254	80.9989	-129.232	32.5055	46.771	-114.319	52.1742	66.3876	-135.685	58.9167	87.6371	-181.367	45.2727	72.4188	-188.638	41.8127	107.201	-193.414	75.9917	87.0919	
7	0.0583333	-168.11	109.847	99.7187	-139.663	121.62	74.7788	-121.78	116.791	46.809	-103.911	96.3226	33.303	-178.591	84.1512	14.4382	-166.926	80.3729	-14.0034	-146.49	74.0619	-30.6496	-144.141	69.7318	16.0653	-115.533	79.4675	26.8011	-129.856	87.1576	66.1084	-135.651	53.4372	30.2978	-109.872	62.9914	51.4565	-127.55	67.5423	78.3301	-127.219	33.8428	45.9943	-114.378	52.0714	62.9447	-139.208	58.7965	87.3875	-181.013	38.9242	73.0959	-188.596	40.9923	105.782	-195.527	77.6251	86.307	
8	0.0666667	-167.834	109.256	97.6055	-140.588	119.769	73.0028	-124.794	114.07	50.3019	-107.562	93.3216	33.6087	-180.051	84.05	17.9159	-164.324	78.1131	-13.3778	-135.271	83.8455	-26.4253	-148.999	69.9313	16.8363	-115.069	78.7857	29.243	-128.707	84.965	64.0959	-134.148	52.4836	30.0139	-110.268	64.1868	50.132	-131.763	70.4176	77.6631	-131.129	32.091	47.2019	-114.334	52.7824	62.4849	-137.506	59.6037	88.0321	-180.959	41.748	72.2573	-187.988	40.5894	109.592	-193.464	76.0559	88.2281	
9	0.075	-169.162	106.91	99.9795	-140.635	123.233	73.5309	-124.566	119.687	50.963	-108.96	96.9615	37.4058	-180.106	83.8802	17.1304	-164.416	75.5435	-8.24779	-131.33	83.7843	-16.7674	-148.687	71.2772	15.3937	-117.492	82.6233	25.0547	-128.616	86.5924	61.9669	-135.027	55.9141	28.9882	-109.925	63.6068	48.8136	-130.903	68.8056	76.8665	-134.131	35.9469	47.0996	-114.748	53.7664	65.6049	-137.919	60.3016	86.3089	-181.138	38.5895	73.6028	-188.945	40.196	106.095	-194.904	76.3708	89.5204	
10	0.0833333	-170.208	109.149	98.1937	-142.303	121.984	74.9866	-124.962	117.666	50.415	-107.274	96.7678	34.2316	-178.779	82.0191	17.2764	-163.991	79.047	-9.15226	-128.777	86.0805	-14.3956	-146.946	71.2334	14.9536	-118.307	82.2566	24.7569	-128.164	83.4523	62.831	-134.23	50.4356	31.421	-110.327	64.9238	49.0731	-132.008	69.8551	78.2229	-133.499	36.831	47.2824	-114.42	54.9623	64.9817	-137.276	60.3785	86.4932	-181.165	39.0882	73.7582	-187.995	41.0747	105.01	-195.494	74.2185	88.3525	
11	0.0916667	-168.094	106.292	101.067	-139.692	124.892	76.5829	-122.512	120.07	51.878	-107.2	98.0074	38.0002	-178.41	84.0473	16.4538	-163.8	78.7681	-11.0931	-135.916	80.1492	-21.1558	-146.988	71.6924	17.407	-114.315	81.4251	28.8723	-129.372	85.7626	67.0156	-134.928	51.7683	32.3531	-110.382	68.0484	48.9348	-127.163	69.113	78.8434	-128.457	40.7267	46.6265	-114.404	55.0475	63.352	-136.98	59.9881	89.8802	-181.757	39.7963	71.2023	-188.688	39.2696	106.46	-193.11	78.3123	86.2906	
12	0.1	-167.13	106.853	96.1966	-137.973	119.393	76.5375	-118.115	119.125	52.6139	-101.149	98.1118	36.5227	-175.886	86.1019	14.3332	-166.443	81.3756	-11.5292	-145.708	76.0141	-29.0071	-142.121	74.3608	17.44	-111.42	82.6046	32.7257	-124.314	85.382	67.4981	-130.623	51.2028	32.726	-108.663	70.5397	53.143	-127.517	70.834	80.4703	-128.912	35.4401	48.7742	-111.904	53.3871	64.8086	-137.07	62.5806	89.6244	-179.406	45.3965	69.311	-188.193	43.2596	107.845	-191.227	77.4443	87.9022	
13	0.108333	-165.648	108.925	99.9993	-136.088	123.52	74.4722	-118.025	118.298	50.2907	-100.535	96.1656	36.6477	-174.499	83.4257	18.4954	-167.672	78.9177	-8.12067	-146.823	73.6657	-33.3648	-139.612	72.6047	16.6293	-111.085	84.1929	32.3011	-123.473	88.0492	66.95	-128.896	54.5457	32.5368	-107.707	67.5538	51.5349	-125.999	72.2762	79.9767	-126.036	40.1868	47.351	-112.784	55.2452	69.5013	-136.795	63.3456	88.1078	-178.313	44.3282	69.5048	-188.899	43.0852	105.171	-193.338	77.1038	89.421	
14	0.116667	-168.134	110.771	99.0921	-138.949	124.269	77.5862	-119.809	120.732	52.6431	-103.815	98.7374	37.9045	-175.693	82.6026	15.8771	-165.423	77.7488	-9.72943	-140.602	77.7898	-29.5574	-144	73.846	17.9986	-112.984	85.3735	30.1022	-128.483	87.2907	69.3813	-130.829	55.3384	32.1949	-108.414	69.0312	53.1097	-126.842	73.0463	78.5065	-124.465	37.2012	48.289	-111.04	54.2512	66.0514	-138.408	61.9618	90.8863	-179.527	40.0563	72.195	-186.652	43.9965	104.939	-192.913	75.6005	86.8478	
15	0.125	-166.805	111.305	100.974	-138.136	122.762	77.051	-120.148	119.803	49.9415	-103.106	100.825	38.6641	-177.642	89.8988	18.0464	-164.656	87.1347	-10.4289	-130.423	86.3946	-22.8805	-146.826	73.7342	18.3885	-113.712	87.7874	31.9989	-125.846	88.6095	67.6328	-134.972	55.3594	31.699	-111.3	69.462	50.7429	-129.622	70.365	79.1101	-129.007	37.1693	47.1455	-115.45	55.6584	65.0112	-140.318	63.1644	87.3105	-181.452	45.752	69.5785	-189.733	45.3389	105.72	-195.693	80.4197	85.4815	
16	0.133333	-159.174	112.87	108.174	-128.905	121.008	79.0272	-115.537	115.695	55.8242	-105.761	93.6372	34.4975	-176.938	104.877	24.5235	-160.664	100.505	-6.83016	-130.989	99.1598	-15.5949	-152.254	81.4365	20.3748	-116.603	82.3292	30.4791	-126.729	83.3905	67.5515	-142.262	63.9608	30.0751	-115.785	64.6308	51.2557	-136.977	67.7785	80.1994	-140.68	41.658	42.9821	-122.937	51.6209	61.0753	-143.02	60.9015	84.795	-190.519	55.4194	72.9522	-197.475	54.6498	103.72	-194.538	89.3544	89.1511	
17	0.141667	-142.299	106.701	111.764	-115.699	103.51	85.7419	-106.747	99.6489	57.0595	-106.985	82.0221	30.3013	-166.038	126.703	33.9502	-157.598	121.312	-0.373108	-134.633	110.643	-15.982	-152.627	93.1054	19.2574	-123.382	79.1946	26.5494	-133.687	75.5202	67.404	-155.312	67.609	26.5503	-129.418	55.9711	42.7929	-141.601	66.0025	75.3057	-164.657	50.1078	36.8819	-140.29	45.2505	56.2776	-150.783	57.4292	80.9995	-198.334	77.891	72.7989	-204.107	68.996	105.05	-186.818	101.52	97.9969	
18	0.15	-129.353	91.8987	109.615	-110.581	81.1654	81.6952	-105.518	77.8703	47.2997	-118.391	66.3072	26.7795	-149.588	127.942	38.6178	-147.861	131.208	6.38872	-141.274	117.208	-21.0966	-155.551	97.7952	21.7532	-134.845	65.5439	23.809	-138.275	62.6561	59.0586	-168.146	74.1815	26.9512	-147.421	47.8137	40.3183	-152.594	57.9389	74.8911	-183.068	58.9941	36.0205	-159.555	45.3212	50.8474	-159.946	57.0229	77.6483	-195.513	93.8182	79.7198	-203.074	84.4356	113.207	-172.404	104.579	103.31	
19	0.158333	-126.519	78.8885	108.301	-106.887	66.5985	76.9229	-109.389	63.935	46.8085	-123.402	55.6703	21.5305	-141.364	124.839	34.5535	-139.891	126.819	9.65511	-139.34	115.883	-21.0425	-155.244	95.1175	20.0149	-140.671	63.7946	19.6191	-143.653	56.1813	56.8369	-173.565	73.9533	27.1337	-158.987	48.604	37.0951	-157.916	54.4897	73.5624	-193.881	67.9642	38.5452	-174.625	44.6049	47.8097	-169.185	54.7166	79.2895	-190.374	104.512	82.4102	-193.66	90.4364	119.037	-156.751	106.111	107.889	
20	0.166667	-125.165	73.4473	111.634	-107.425	60.7584	75.5038	-110.311	57.7522	45.0393	-127.663	50.0047	21.6522	-134.708	118.094	39.209	-135.603	117.944	4.76349	-134.227	100.529	-21.8936	-156.445	93.3617	24.6148	-143.538	60.4785	19.5517	-144.051	52.1565	59.2592	-174.723	76.1629	31.8682	-162.732	43.75	43.3573	-158.418	52.1222	74.0229	-193.455	69.5714	42.6329	-178.139	45.36	51.8403	-167.995	56.3459	81.1054	-184.995	103.708	85.7202	-187.755	95.4967	118.921	-154.129	106.138	105.613	
21	0.175	-121.507	73.139	110.127	-108.441	55.0338	82.016	-109.406	51.0129	49.1211	-124.927	42.721	29.0901	-132.045	113.074	36.4414	-129.862	109.474	5.72223	-128.111	83.8327	-13.9896	-150.514	88.5131	22.391	-145.523	53.8939	22.1905	-142.774	47.1154	58.5038	-173.489	73.1409	33.6799	-160.803	41.1031	44.3863	-159.26	48.4295	76.202	-189.868	64.1148	43.8198	-174.392	43.1665	56.7036	-168.216	53.6122	83.4743	-182.922	102.407	85.9141	-187.51	93.8096	123.138	-151.48	102.948	107.895	
